<svg width="883" height="427" viewBox="0 0 883 427" fill="none" xmlns="http://www.w3.org/2000/svg">
<g clip-path="url(#clip0_2313_164)">
<path d="M312.41 0.86577C313.514 0.861312 314.619 0.856854 315.757 0.852262C316.971 0.852446 318.185 0.85263 319.435 0.85282C320.724 0.849144 322.014 0.845467 323.342 0.841679C326.925 0.831667 330.507 0.827943 334.089 0.825289C337.951 0.821384 341.814 0.811806 345.676 0.803077C355.007 0.783318 364.337 0.773246 373.667 0.764349C378.063 0.759964 382.458 0.754598 386.854 0.74936C401.47 0.732347 416.086 0.717854 430.702 0.710611C434.495 0.708701 438.287 0.706781 442.08 0.704825C443.494 0.7041 443.494 0.7041 444.936 0.703359C460.199 0.695063 475.461 0.669733 490.723 0.637245C506.399 0.604149 522.075 0.58616 537.75 0.582967C546.549 0.580804 555.348 0.572087 564.147 0.546506C571.642 0.524765 579.137 0.516765 586.632 0.526473C590.453 0.531008 594.274 0.529178 598.096 0.509711C602.247 0.488745 606.398 0.499096 610.549 0.512244C612.343 0.49579 612.343 0.49579 614.173 0.479004C626.615 0.573849 636.385 4.12851 646 12C646.699 12.5504 647.398 13.1009 648.117 13.668C652.659 17.6708 655.541 22.2532 658.313 27.5625C658.638 28.1683 658.964 28.774 659.299 29.3982C664.902 40.8436 665.446 53.9005 665.477 66.3945C665.491 67.8032 665.507 69.2119 665.524 70.6205C665.565 74.2741 665.591 77.9276 665.611 81.5814C665.648 87.4726 665.708 93.3636 665.77 99.2547C665.789 101.303 665.801 103.352 665.811 105.4C665.827 107.249 665.827 107.249 665.842 109.136C665.852 110.767 665.852 110.767 665.862 112.431C665.828 114.989 665.828 114.989 667 117C668.598 117.012 668.598 117.012 670.229 117.024C680.306 117.102 690.383 117.19 700.46 117.288C705.64 117.337 710.82 117.384 716 117.422C721.006 117.459 726.011 117.505 731.017 117.558C732.919 117.576 734.822 117.592 736.725 117.603C766.142 117.791 766.142 117.791 778.225 129.859C778.79 130.442 779.355 131.025 779.938 131.625C780.541 132.237 781.144 132.848 781.766 133.479C786.156 137.986 790.157 142.685 794.059 147.621C796.269 150.329 798.674 152.704 801.188 155.125C804.298 158.342 807.01 161.891 809.813 165.375C811.628 167.553 813.462 169.537 815.5 171.5C819.306 175.164 822.506 179.264 825.813 183.375C827.628 185.553 829.462 187.537 831.5 189.5C834.405 192.297 836.914 195.292 839.438 198.437C842.152 201.813 844.889 204.987 848 208C851.987 211.86 855.385 216.093 858.852 220.418C860.631 222.556 862.422 224.468 864.438 226.375C867.7 229.53 870.474 232.982 873.25 236.562C873.675 237.105 874.1 237.648 874.537 238.207C879.182 244.292 882.106 249.875 882.147 257.552C882.158 258.914 882.158 258.914 882.169 260.304C882.173 261.788 882.173 261.788 882.177 263.301C882.187 264.873 882.187 264.873 882.197 266.476C882.217 269.945 882.229 273.414 882.239 276.883C882.245 278.662 882.245 278.662 882.251 280.478C882.272 286.759 882.286 293.041 882.295 299.322C882.306 305.798 882.341 312.274 882.381 318.75C882.407 323.74 882.415 328.73 882.419 333.719C882.424 336.106 882.435 338.492 882.454 340.879C882.478 344.227 882.477 347.574 882.47 350.922C882.483 351.899 882.496 352.876 882.509 353.883C882.448 362.026 880.266 368.469 875.875 375.312C870.904 379.959 865.768 382.903 858.887 383.379C850.982 383.701 850.982 383.701 844.501 387.627C841.81 391.809 839.965 396.38 838.001 400.933C832.773 411.736 820.848 419.667 810 424C794.555 428.913 778.767 428.218 764.188 420.812C758.891 417.564 754.419 413.335 750 409C749.456 408.481 748.912 407.961 748.352 407.426C743.932 402.774 741.079 397.039 738.07 391.422C736.223 387.567 736.223 387.567 733 385C731.598 384.906 730.191 384.873 728.786 384.871C727.896 384.868 727.007 384.865 726.091 384.862C724.617 384.864 724.617 384.864 723.113 384.866C722.073 384.864 721.034 384.862 719.963 384.859C716.456 384.853 712.95 384.854 709.444 384.855C706.94 384.852 704.435 384.848 701.931 384.845C695.82 384.837 689.709 384.834 683.598 384.833C678.632 384.832 673.665 384.83 668.699 384.827C654.625 384.818 640.551 384.814 626.477 384.815C625.718 384.815 624.958 384.815 624.176 384.815C623.416 384.815 622.656 384.815 621.873 384.815C609.554 384.815 597.236 384.806 584.917 384.792C572.276 384.777 559.634 384.77 546.993 384.771C539.893 384.771 532.793 384.769 525.693 384.758C519.016 384.748 512.339 384.748 505.662 384.755C503.208 384.757 500.754 384.754 498.3 384.748C494.956 384.74 491.613 384.745 488.269 384.753C487.293 384.748 486.316 384.742 485.31 384.737C478.893 384.698 478.893 384.698 473 387C471.557 389.511 470.389 391.86 469.25 394.5C462.456 409.041 451.81 418.221 436.867 424C422.306 429.079 408.141 427.705 393.957 421.715C379.504 414.396 370.949 402.753 364.262 388.371C363.226 385.871 363.226 385.871 361 385C358.837 384.895 356.671 384.854 354.506 384.842C353.839 384.837 353.172 384.832 352.485 384.827C351.034 384.816 349.582 384.808 348.131 384.801C345.826 384.789 343.521 384.77 341.216 384.748C334.661 384.686 328.107 384.632 321.552 384.599C317.542 384.578 313.533 384.542 309.524 384.498C308.003 384.484 306.481 384.475 304.96 384.472C292.816 384.444 282.963 383.909 273.91 375.176C264.39 364.332 264.847 348.656 264.866 335.061C264.864 333.897 264.862 332.733 264.86 331.534C264.854 328.331 264.854 325.127 264.855 321.924C264.855 318.458 264.849 314.992 264.845 311.527C264.836 304.745 264.834 297.964 264.833 291.183C264.833 285.665 264.831 280.146 264.827 274.628C264.819 258.952 264.814 243.276 264.815 227.599C264.815 226.755 264.815 225.911 264.815 225.042C264.815 224.197 264.815 223.352 264.815 222.482C264.815 208.805 264.806 195.128 264.792 181.451C264.777 167.377 264.77 153.304 264.771 139.23C264.772 131.341 264.769 123.452 264.758 115.564C264.749 108.843 264.747 102.123 264.754 95.4033C264.757 91.9823 264.756 88.5615 264.748 85.1405C264.642 34.1655 264.642 34.1655 282 14C290.752 6.49287 300.688 0.887724 312.41 0.86577ZM296 33C289.31 41.6377 288.705 49.7899 288.74 60.4183C288.736 61.6697 288.732 62.921 288.728 64.2102C288.718 67.6717 288.72 71.1331 288.724 74.5947C288.727 78.3322 288.718 82.0698 288.71 85.8074C288.697 93.1244 288.696 100.441 288.698 107.758C288.7 113.705 288.698 119.652 288.694 125.598C288.693 126.445 288.692 127.291 288.692 128.164C288.691 129.883 288.689 131.603 288.688 133.323C288.677 149.446 288.679 165.569 288.686 181.692C288.691 196.444 288.679 211.196 288.66 225.948C288.641 241.098 288.633 256.247 288.637 271.396C288.639 279.901 288.636 288.405 288.622 296.91C288.61 304.148 288.609 311.386 288.621 318.624C288.627 322.316 288.628 326.009 288.616 329.702C288.603 333.704 288.613 337.706 288.626 341.709C288.619 342.877 288.611 344.045 288.604 345.249C288.653 353.046 288.653 353.046 292 360C295.68 362.176 299.072 362.261 303.288 362.291C304.536 362.303 305.784 362.316 307.069 362.329C308.423 362.332 309.776 362.334 311.129 362.336C312.525 362.342 313.921 362.349 315.316 362.356C318.236 362.368 321.155 362.372 324.074 362.371C327.812 362.37 331.55 362.398 335.288 362.432C338.168 362.454 341.048 362.458 343.928 362.457C345.306 362.46 346.685 362.469 348.063 362.484C349.989 362.504 351.916 362.495 353.842 362.486C354.937 362.489 356.033 362.492 357.161 362.494C360.697 361.879 361.81 360.791 364 358C365.155 355.505 366.193 353.055 367.188 350.5C373.132 336.232 381.634 326.612 395.875 320.188C410.542 314.464 426.373 314.474 441.063 320.125C456.972 327.311 465.459 338.952 471.706 354.795C473.121 358.335 473.737 359.825 477 362C480.005 362.306 480.005 362.306 483.491 362.261C484.153 362.265 484.815 362.268 485.497 362.272C487.719 362.283 489.942 362.279 492.164 362.275C493.756 362.279 495.348 362.284 496.939 362.29C501.265 362.304 505.592 362.304 509.918 362.302C513.527 362.301 517.135 362.305 520.744 362.31C529.254 362.321 537.765 362.322 546.276 362.316C555.064 362.31 563.852 362.322 572.64 362.343C580.179 362.361 587.718 362.367 595.257 362.364C599.762 362.362 604.267 362.364 608.773 362.378C613.008 362.391 617.243 362.389 621.479 362.376C623.035 362.374 624.592 362.376 626.148 362.385C628.269 362.395 630.389 362.387 632.509 362.374C634.291 362.374 634.291 362.374 636.109 362.375C638.945 362.241 638.945 362.241 640.657 360.799C642.464 358.379 642.377 356.848 642.381 353.841C642.393 352.23 642.393 352.23 642.406 350.586C642.397 348.809 642.397 348.809 642.388 346.996C642.393 345.741 642.399 344.485 642.404 343.192C642.419 339.701 642.414 336.21 642.407 332.719C642.402 328.956 642.415 325.193 642.425 321.43C642.442 314.052 642.443 306.675 642.438 299.297C642.434 293.297 642.435 287.297 642.441 281.297C642.441 280.444 642.442 279.59 642.443 278.711C642.444 276.977 642.446 275.244 642.447 273.51C642.461 257.235 642.456 240.959 642.444 224.684C642.434 209.81 642.447 194.936 642.471 180.063C642.496 164.786 642.505 149.509 642.499 134.232C642.495 125.658 642.497 117.083 642.515 108.508C642.53 101.202 642.53 93.8965 642.513 86.5905C642.504 82.8663 642.502 79.1424 642.517 75.4183C642.534 71.3699 642.519 67.3223 642.501 63.2739C642.511 62.1116 642.521 60.9492 642.531 59.7516C642.442 49.8035 640.884 38.8421 633.75 31.375C633.044 30.599 632.337 29.823 631.61 29.0234C624.454 23.4744 617.051 23.5712 608.361 23.6258C607.098 23.6218 605.835 23.6178 604.534 23.6137C601.044 23.6032 597.555 23.6112 594.065 23.6225C590.295 23.6313 586.526 23.6229 582.756 23.6166C575.378 23.6071 567.999 23.6137 560.621 23.6259C552.025 23.6395 543.43 23.6379 534.834 23.6357C519.495 23.6326 504.156 23.6442 488.817 23.6638C473.939 23.6828 459.061 23.6899 444.183 23.6843C427.975 23.6783 411.767 23.6784 395.559 23.6898C393.83 23.691 392.101 23.6922 390.372 23.6934C389.096 23.6943 389.096 23.6943 387.794 23.6952C381.805 23.6991 375.816 23.6987 369.827 23.6968C362.527 23.6947 355.226 23.7 347.926 23.7144C344.202 23.7217 340.479 23.7258 336.755 23.7212C332.716 23.7164 328.678 23.7271 324.639 23.7393C322.879 23.7336 322.879 23.7336 321.083 23.7278C310.529 23.7844 303.344 24.9796 296 33ZM666 143C665.211 148.558 664.857 153.924 664.873 159.532C664.872 160.353 664.87 161.175 664.868 162.021C664.865 164.753 664.868 167.485 664.871 170.217C664.869 172.183 664.868 174.15 664.866 176.117C664.861 181.446 664.863 186.774 664.866 192.103C664.868 197.686 664.866 203.27 664.865 208.854C664.863 218.231 664.865 227.608 664.87 236.986C664.875 247.816 664.874 258.646 664.868 269.476C664.863 278.785 664.863 288.094 664.865 297.403C664.867 302.958 664.867 308.513 664.864 314.069C664.861 319.293 664.863 324.517 664.869 329.742C664.87 331.655 664.87 333.569 664.868 335.482C664.865 338.102 664.868 340.721 664.873 343.341C664.871 344.091 664.869 344.842 664.866 345.615C664.885 350.807 665.36 355.846 666 361C669.329 362.11 671.8 362.12 675.308 362.114C676.609 362.113 677.91 362.113 679.25 362.113C680.671 362.108 682.091 362.103 683.512 362.098C684.965 362.096 686.418 362.094 687.871 362.093C691.693 362.09 695.515 362.08 699.338 362.069C703.239 362.058 707.14 362.054 711.041 362.049C718.694 362.038 726.347 362.021 734 362C734.27 361.392 734.54 360.784 734.819 360.157C735.176 359.355 735.532 358.552 735.9 357.724C736.252 356.931 736.605 356.137 736.968 355.319C744.006 339.501 752.401 326.992 768.75 319.688C783.623 314.304 800.536 314.578 815 321C828.749 328.182 837.172 337.658 843 352C843.744 353.711 844.494 355.42 845.25 357.125C845.565 357.849 845.879 358.574 846.203 359.32C846.882 360.994 846.882 360.994 848 362C851.296 362.293 853.372 362.34 856.313 360.75C860.011 356.914 859.148 351.446 859.146 346.424C859.149 345.56 859.152 344.696 859.156 343.806C859.165 340.953 859.167 338.099 859.168 335.246C859.171 333.264 859.175 331.281 859.178 329.299C859.184 325.145 859.186 320.992 859.186 316.838C859.185 311.509 859.199 306.18 859.216 300.852C859.227 296.759 859.229 292.666 859.229 288.573C859.23 286.608 859.235 284.643 859.242 282.677C859.252 279.934 859.249 277.191 859.243 274.447C859.249 273.632 859.254 272.817 859.26 271.977C859.239 268.121 859.19 266.285 857 263C854.749 262.543 854.749 262.543 852.088 262.615C851.05 262.605 850.011 262.595 848.941 262.586C847.797 262.59 846.652 262.595 845.473 262.599C844.271 262.592 843.069 262.585 841.831 262.578C839.212 262.565 836.594 262.557 833.976 262.559C829.826 262.561 825.677 262.541 821.528 262.519C813.455 262.478 805.383 262.459 797.31 262.442C787.068 262.42 776.825 262.386 766.583 262.335C763.139 262.319 759.695 262.307 756.252 262.305C752.398 262.302 748.545 262.288 744.692 262.271C743.566 262.274 742.44 262.276 741.279 262.279C731.336 262.215 720.749 261.992 713 255C708.129 248.974 705.765 242.534 705.71 234.77C705.697 233.558 705.684 232.347 705.671 231.098C705.669 229.801 705.667 228.504 705.664 227.168C705.658 225.808 705.651 224.448 705.644 223.088C705.632 220.243 705.628 217.398 705.63 214.552C705.63 210.928 705.603 207.304 705.568 203.68C705.546 200.872 705.542 198.064 705.543 195.256C705.539 193.277 705.518 191.298 705.496 189.319C705.538 180.863 706.705 174.629 711.641 167.695C719.61 159.919 728.499 158.916 739.356 158.719C740.139 158.7 740.923 158.682 741.73 158.663C745.061 158.585 748.392 158.516 751.723 158.448C754.163 158.396 756.603 158.339 759.043 158.281C759.796 158.268 760.549 158.254 761.325 158.24C764.464 158.165 767.002 157.999 770 157C768.638 152.97 766.883 150.373 763.938 147.312C763.225 146.545 762.512 145.779 761.778 144.988C753.555 139.102 741.694 140.708 732.016 140.734C730.269 140.733 728.523 140.731 726.777 140.729C723.132 140.726 719.488 140.73 715.843 140.739C711.177 140.751 706.512 140.744 701.846 140.732C698.246 140.725 694.646 140.727 691.047 140.732C689.326 140.734 687.605 140.732 685.884 140.727C683.482 140.722 681.079 140.73 678.677 140.741C677.617 140.735 677.617 140.735 676.536 140.729C672.586 140.763 669.56 141.267 666 143ZM728 184C726.442 188.755 726.838 193.984 726.832 198.937C726.829 199.895 726.826 200.853 726.822 201.84C726.817 203.86 726.815 205.881 726.815 207.901C726.813 210.989 726.795 214.076 726.776 217.164C726.773 219.13 726.771 221.096 726.77 223.062C726.763 223.983 726.755 224.904 726.748 225.853C726.618 232.976 726.618 232.976 730 239C740.331 240.812 751.217 240.145 761.664 240.133C763.667 240.133 765.67 240.134 767.673 240.136C771.854 240.137 776.034 240.135 780.215 240.13C785.555 240.125 790.896 240.128 796.236 240.134C800.366 240.138 804.496 240.136 808.626 240.134C810.595 240.133 812.563 240.134 814.532 240.136C817.288 240.139 820.044 240.135 822.799 240.129C823.601 240.131 824.402 240.133 825.228 240.136C833.173 240.156 833.173 240.156 841 239C841.495 238.01 841.495 238.01 842 237C837.366 230.999 832.513 225.295 827.348 219.743C823.818 215.932 820.422 212.025 817.063 208.062C812.988 203.266 808.834 198.56 804.563 193.937C804.079 193.414 803.595 192.89 803.096 192.35C801.74 190.892 800.37 189.446 799 188C798.164 187.094 797.327 186.188 796.465 185.254C792.342 181.483 788.651 180.75 783.156 180.725C782.005 180.716 780.854 180.706 779.668 180.696C777.817 180.698 777.817 180.698 775.93 180.699C774.657 180.695 773.384 180.691 772.072 180.686C769.384 180.68 766.696 180.679 764.008 180.684C760.563 180.69 757.119 180.673 753.674 180.65C750.385 180.632 747.095 180.635 743.805 180.637C742.567 180.627 741.33 180.618 740.055 180.609C738.91 180.615 737.765 180.621 736.586 180.628C735.073 180.627 735.073 180.627 733.529 180.626C730.611 181.058 729.737 181.663 728 184ZM396 346C389.804 351.689 385.612 359.195 384.727 367.594C384.366 377.905 387.205 386.037 393.813 394C397.484 397.802 401.012 400.267 406 402C406.676 402.235 407.351 402.469 408.047 402.711C416.166 404.992 426.243 404.588 434.028 401.199C441.245 396.812 447.236 391.067 450 383C450.222 382.353 450.444 381.706 450.672 381.039C453.808 370.317 451.471 361.344 446.188 351.688C439.53 343.508 431.375 338.733 420.926 337.129C411.706 336.723 403.228 340.502 396 346ZM767.731 345.977C760.46 353.611 756.881 362.434 757 373C757.71 381.672 761.913 390.581 768.375 396.438C777.027 403.046 785.644 404.823 796.418 403.762C805.91 402.305 812.534 397.328 818.563 390.016C823.862 382.586 824.819 373.899 824 365C821.795 355.208 816.796 348.588 808.813 342.688C795.711 334.412 779.386 335.826 767.731 345.977Z" fill="#5C524E"/>
<path d="M458.867 141.027C462.009 142.46 464.546 143 468 143C470.159 142.159 472.104 141.174 474.105 140.008C480.736 136.48 490.6 136.902 497.738 138.684C507.195 142.62 512.116 148.676 516 158C518.926 166.777 516.442 175.712 513 184C508.434 192.35 501.564 199.193 495 206C494.443 206.579 493.887 207.157 493.313 207.753C472 229.782 472 229.782 465 230C457.46 227.544 452.597 222.406 447.023 216.972C445.587 215.572 444.143 214.178 442.695 212.79C414.368 185.587 414.368 185.587 413.562 167C413.839 158.016 417.002 151.204 423.133 144.691C432.911 135.834 447.312 135.707 458.867 141.027Z" fill="#5C524E"/>
<path d="M17.9138 135.86C18.7288 135.857 19.5439 135.854 20.3836 135.851C23.1242 135.842 25.8648 135.84 28.6054 135.839C30.5665 135.834 32.5276 135.829 34.4888 135.824C39.8235 135.811 45.1583 135.804 50.493 135.8C53.8247 135.797 57.1564 135.793 60.488 135.788C70.9083 135.775 81.3286 135.765 91.7489 135.761C103.785 135.757 115.82 135.739 127.856 135.71C137.154 135.689 146.453 135.678 155.752 135.677C161.307 135.676 166.863 135.67 172.419 135.652C177.645 135.636 182.871 135.634 188.097 135.642C190.015 135.643 191.933 135.639 193.851 135.629C196.47 135.616 199.088 135.622 201.707 135.633C202.465 135.625 203.224 135.616 204.006 135.608C208.74 135.652 211.97 136.516 216.001 139C218.781 142.413 218.415 146.803 218.001 151C217.191 153.563 216.626 154.567 214.434 156.085C210.929 157.403 207.509 157.282 203.815 157.267C202.567 157.274 202.567 157.274 201.293 157.281C198.501 157.294 195.708 157.292 192.915 157.291C190.915 157.297 188.914 157.303 186.913 157.311C181.475 157.329 176.037 157.333 170.599 157.335C166.061 157.336 161.523 157.344 156.986 157.351C146.28 157.367 135.575 157.372 124.87 157.371C113.823 157.369 102.776 157.391 91.7288 157.422C82.2476 157.448 72.7665 157.459 63.2852 157.458C57.621 157.457 51.9569 157.463 46.2927 157.484C40.9657 157.503 35.639 157.504 30.312 157.489C28.3569 157.487 26.4017 157.492 24.4466 157.504C21.7773 157.519 19.1092 157.51 16.4399 157.495C15.6663 157.505 14.8928 157.515 14.0958 157.526C8.92235 157.46 5.99761 156.248 2.00064 153C-0.0932734 150.36 0.000636303 148.988 0.000636303 145.563C1.33828 140.797 2.95578 139.751 7.00064 137C10.6831 135.773 14.0792 135.855 17.9138 135.86Z" fill="#5C524E"/>
<path d="M53.7794 202.739C54.4363 202.735 55.0932 202.732 55.7701 202.728C57.9578 202.717 60.1453 202.721 62.333 202.725C63.9071 202.721 65.4812 202.716 67.0553 202.71C71.3219 202.696 75.5884 202.696 79.855 202.698C83.421 202.7 86.987 202.695 90.553 202.69C98.9684 202.679 107.384 202.678 115.799 202.684C124.471 202.69 133.143 202.678 141.814 202.657C149.268 202.639 156.722 202.633 164.177 202.636C168.625 202.638 173.072 202.636 177.521 202.622C181.705 202.609 185.889 202.611 190.074 202.624C191.606 202.626 193.137 202.624 194.669 202.615C209.452 202.541 209.452 202.541 215.999 206C218.838 210.258 218.742 214.005 217.999 219C216.045 222.127 214.57 223.503 211.028 224.624C203.412 226.232 195.918 226.283 188.162 226.259C186.689 226.262 185.216 226.265 183.743 226.269C179.77 226.278 175.797 226.275 171.824 226.269C167.65 226.264 163.476 226.268 159.302 226.271C152.294 226.275 145.287 226.27 138.28 226.261C130.199 226.25 122.118 226.253 114.038 226.264C107.078 226.274 100.118 226.275 93.1577 226.27C89.0103 226.266 84.8631 226.266 80.7157 226.273C76.8152 226.278 72.9148 226.274 69.0143 226.263C67.5897 226.26 66.1652 226.261 64.7407 226.265C43.911 226.324 43.911 226.324 37.9995 221C36.7594 217.28 36.4635 213.865 36.9995 210C38.8871 206.66 40.1751 205.338 43.7242 203.883C47.2223 202.94 50.1597 202.746 53.7794 202.739Z" fill="#5C524E"/>
<path d="M89.382 270.733C90.4488 270.724 91.5156 270.716 92.6147 270.707C93.7749 270.708 94.935 270.709 96.1303 270.709C97.3601 270.703 98.5899 270.696 99.857 270.689C103.223 270.673 106.588 270.667 109.954 270.665C112.059 270.664 114.163 270.66 116.268 270.654C123.614 270.636 130.961 270.628 138.308 270.629C145.149 270.631 151.989 270.609 158.83 270.578C164.711 270.552 170.591 270.541 176.471 270.542C179.98 270.543 183.489 270.537 186.998 270.516C190.912 270.493 194.826 270.502 198.74 270.514C199.898 270.503 201.056 270.492 202.249 270.48C208.44 270.529 212.338 270.747 217 275C218.844 278.689 218.488 282.973 218 287C216.115 289.576 214.806 290.597 212 292C210.301 292.099 208.598 292.135 206.895 292.14C205.815 292.146 204.734 292.152 203.62 292.158C202.429 292.159 201.237 292.16 200.01 292.161C198.76 292.166 197.509 292.171 196.221 292.176C192.785 292.188 189.349 292.196 185.913 292.2C183.766 292.203 181.62 292.207 179.473 292.212C172.758 292.225 166.043 292.235 159.327 292.239C151.574 292.243 143.822 292.261 136.069 292.29C130.077 292.312 124.086 292.322 118.094 292.323C114.515 292.324 110.936 292.33 107.357 292.348C103.364 292.367 99.3709 292.363 95.3774 292.356C93.5997 292.37 93.5997 292.37 91.7861 292.384C90.6967 292.379 89.6073 292.373 88.4848 292.367C87.0687 292.37 87.0687 292.37 85.624 292.372C82.4692 291.925 80.584 290.831 77.9997 289C75.4334 285.578 75.6353 282.154 75.9997 278C77.3399 274.826 78.1704 273.408 81.2766 271.88C84.1441 270.953 86.3759 270.743 89.382 270.733Z" fill="#5C524E"/>
</g>
<defs>
<clipPath id="clip0_2313_164">
<rect width="883" height="427" fill="white"/>
</clipPath>
</defs>
</svg>
